{"accessors" : [{"bufferView" : 0, "byteOffset" : 0, "componentType" : 5123, "count" : 7536, "type" : "SCALAR", "max" : [3539], "min" : [0]}, {"bufferView" : 1, "byteOffset" : 0, "componentType" : 5126, "count" : 3540, "type" : "VEC3", "max" : [0.00582214770838618, 0.0169406663626432, 0.0487248599529266], "min" : [-0.0284076351672411, -0.0163001287728548, -0.0484924651682377]}, {"bufferView" : 1, "byteOffset" : 12, "componentType" : 5126, "count" : 3540, "type" : "VEC3", "max" : [1, 1, 1], "min" : [-1, -1, -1]}, {"bufferView" : 1, "byteOffset" : 24, "componentType" : 5126, "count" : 3540, "type" : "VEC2", "max" : [1, 1], "min" : [0, 0]}], "asset" : {"generator" : "Aspose.3D 19.11", "version" : "2.0"}, "buffers" : [{"uri" : "buffer.bin", "byteLength" : 128432}], "bufferViews" : [{"buffer" : 0, "byteOffset" : 0, "byteLength" : 15072, "target" : 34963}, {"buffer" : 0, "byteOffset" : 15076, "byteLength" : 113280, "byteStride" : 32, "target" : 34962}, {"buffer" : 0, "byteOffset" : 128360, "byteLength" : 70}], "cameras" : [{"perspective" : {"aspectRatio" : 1.77777779102325, "yfov" : 0.857556045055389, "zfar" : 10000, "znear" : 10}, "type" : "perspective"}], "images" : [{"mimeType" : "image/png", "bufferView" : 2}], "materials" : [{"pbrMetallicRoughness" : {"baseColorFactor" : [0.800000011920929, 0.800000011920929, 0.800000011920929, 1], "baseColorTexture" : {"index" : 0, "texCoord" : 0}, "metallicFactor" : 0.400000005960464, "roughnessFactor" : 0.415087103843689}, "emissiveFactor" : [0, 0, 0], "alphaMode" : "OPAQUE", "doubleSided" : false}], "meshes" : [{"primitives" : [{"attributes" : {"POSITION" : 1, "NORMAL" : 2, "TEXCOORD_0" : 3}, "indices" : 0, "material" : 0, "mode" : 4}]}], "nodes" : [{"matrix" : [100, 0, 0, 0, 0, -1.34358855818917E-05, -99.9999965771451, 0, 0, 99.9999965771451, -1.34358855818917E-05, 0, -0.609118580818176, 4.77855920791626, 0.0378764607012272, 1], "mesh" : 0, "name" : "Cube"}, {"camera" : 0, "matrix" : [65.4861853081311, 44.5245396911633, 61.0665593157807, 0, -31.7370114729665, 89.5343244969967, -31.2468681495736, 0, -68.5880558416881, 1.08168002758031, 72.7633725219469, 0, 15.550594329834, 5.34366512298584, 6.50763940811157, 1], "name" : "Camera"}, {"children" : [0, 1], "name" : "RootNode"}], "samplers" : [{"magFilter" : 9728, "minFilter" : 9728, "wrapS" : 10497, "wrapT" : 10497}], "scene" : 0, "scenes" : [{"nodes" : [2]}], "textures" : [{"sampler" : 0, "source" : 0}]}