{"accessors" : [{"bufferView" : 0, "byteOffset" : 0, "componentType" : 5125, "count" : 253248, "type" : "SCALAR", "max" : [166057], "min" : [0]}, {"bufferView" : 1, "byteOffset" : 0, "componentType" : 5126, "count" : 166058, "type" : "VEC3", "max" : [18.5, 18.845458984375, 12.5], "min" : [-18.5, -0.594243347644806, -28.3265438079834]}, {"bufferView" : 1, "byteOffset" : 12, "componentType" : 5126, "count" : 166058, "type" : "VEC3", "max" : [1, 1, 1], "min" : [-1, -1, -1]}, {"bufferView" : 1, "byteOffset" : 24, "componentType" : 5126, "count" : 166058, "type" : "VEC4", "max" : [1, 1, 1, 1], "min" : [0.0967741906642914, 0.0967741906642914, 0.0967741906642914, 1]}], "asset" : {"generator" : "Aspose.3D 19.11", "version" : "2.0"}, "buffers" : [{"uri" : "buffer.bin", "byteLength" : 7655320}], "bufferViews" : [{"buffer" : 0, "byteOffset" : 0, "byteLength" : 1012992, "target" : 34963}, {"buffer" : 0, "byteOffset" : 1012996, "byteLength" : 6642320, "byteStride" : 40, "target" : 34962}], "materials" : [{"pbrMetallicRoughness" : {"baseColorFactor" : [0.8, 0.8, 0.8, 1], "metallicFactor" : 0.5, "roughnessFactor" : 0.5}, "emissiveFactor" : [0, 0, 0], "alphaMode" : "OPAQUE", "doubleSided" : false}], "meshes" : [{"primitives" : [{"attributes" : {"POSITION" : 1, "NORMAL" : 2, "COLOR" : 3}, "indices" : 0, "material" : 0, "mode" : 4}]}], "nodes" : [{"mesh" : 0}], "scene" : 0, "scenes" : [{"nodes" : [0]}]}